<svg aria-hidden="true" style="position: absolute; width: 0; height: 0; overflow: hidden;" version="1.1" xmlns="http://www.w3.org/2000/svg" xmlns:xlink="http://www.w3.org/1999/xlink">
<defs>
<symbol id="icon-creative-commons-sharealike" viewBox="0 0 20 20">
<path d="M9.988 0.4c-2.659 0-4.91 0.928-6.752 2.784-1.891 1.92-2.835 4.192-2.835 6.816s0.945 4.88 2.835 6.768c1.89 1.888 4.141 2.832 6.752 2.832 2.643 0 4.934-0.952 6.873-2.856 1.826-1.808 2.74-4.056 2.74-6.744s-0.929-4.96-2.788-6.816c-1.859-1.856-4.133-2.784-6.825-2.784zM10.012 2.128c2.179 0 4.029 0.768 5.551 2.304 1.538 1.52 2.307 3.376 2.307 5.568 0 2.208-0.753 4.040-2.259 5.496-1.586 1.568-3.452 2.352-5.599 2.352s-3.997-0.776-5.551-2.328c-1.554-1.552-2.331-3.392-2.331-5.52s0.785-3.984 2.355-5.568c1.506-1.536 3.348-2.304 5.527-2.304z"></path>
<path d="M5.733 8.645c0.383-2.415 2.083-3.707 4.214-3.707 3.065 0 4.933 2.224 4.933 5.189 0 2.894-1.987 5.142-4.98 5.142-2.059 0-3.903-1.267-4.238-3.754h2.418c0.072 1.291 0.91 1.746 2.107 1.746 1.365 0 2.251-1.268 2.251-3.205 0-2.033-0.766-3.109-2.203-3.109-1.053 0-1.963 0.383-2.155 1.698l0.703-0.004-1.904 1.903-1.904-1.903 0.758 0.004z"></path>
</symbol>
<symbol id="icon-creative-commons-noncommercial-us" viewBox="0 0 20 20">
<path d="M9.988 0.4c2.691 0 4.966 0.928 6.825 2.784s2.787 4.128 2.787 6.816-0.913 4.936-2.739 6.744c-1.939 1.904-4.23 2.856-6.873 2.856-2.611 0-4.862-0.944-6.752-2.832s-2.835-4.144-2.835-6.768 0.945-4.896 2.835-6.816c1.842-1.856 4.093-2.784 6.752-2.784zM2.56 7.421c-0.287 0.81-0.43 1.67-0.43 2.579 0 2.128 0.777 3.968 2.331 5.52s3.404 2.328 5.551 2.328c2.147 0 4.013-0.784 5.599-2.352 0.531-0.513 0.968-1.073 1.311-1.68l-3.619-1.612c-0.246 1.218-1.331 2.040-2.643 2.137v1.48h-1.102v-1.48c-1.078-0.012-2.118-0.453-2.914-1.15l1.322-1.333c0.637 0.599 1.273 0.869 2.143 0.869 0.563 0 1.188-0.22 1.188-0.954 0-0.26-0.101-0.441-0.26-0.577l-2.055-0.915c-0.564-0.251-1.041-0.464-1.521-0.677l-4.903-2.183zM10.012 2.128c-2.179 0-4.021 0.768-5.527 2.304-0.41 0.413-0.766 0.846-1.069 1.296l3.67 1.634c0.332-1.018 1.299-1.635 2.474-1.704v-1.48h1.102v1.48c0.759 0.037 1.592 0.245 2.412 0.881l-1.261 1.296c-0.465-0.33-1.053-0.563-1.641-0.563-0.477 0-1.151 0.147-1.151 0.746 0 0.091 0.030 0.172 0.086 0.244l2.058 0.917c0.531 0.236 1.039 0.462 1.542 0.686l4.919 2.19c0.163-0.645 0.244-1.33 0.244-2.055 0-2.192-0.769-4.048-2.307-5.568-1.522-1.536-3.372-2.304-5.551-2.304z"></path>
</symbol>
<symbol id="icon-creative-commons-noderivs" viewBox="0 0 20 20">
<path d="M9.988 0.4c-2.659 0-4.91 0.928-6.752 2.784-1.891 1.92-2.835 4.192-2.835 6.816s0.945 4.88 2.835 6.768c1.89 1.888 4.141 2.832 6.752 2.832 2.643 0 4.934-0.952 6.873-2.856 1.826-1.808 2.74-4.056 2.74-6.744s-0.929-4.961-2.788-6.816c-1.859-1.856-4.133-2.784-6.825-2.784zM10.012 2.127c2.179 0 4.029 0.768 5.551 2.304 1.538 1.52 2.307 3.376 2.307 5.568 0 2.208-0.753 4.040-2.259 5.496-1.586 1.568-3.452 2.351-5.599 2.351s-3.997-0.776-5.551-2.328c-1.554-1.552-2.331-3.392-2.331-5.519 0-2.129 0.785-3.984 2.355-5.568 1.506-1.536 3.348-2.304 5.527-2.304z"></path>
<path d="M13.627 7.725h-6.978v1.653h6.978v-1.653zM13.627 10.81h-6.978v1.653h6.978v-1.653z"></path>
</symbol>
<symbol id="icon-creative-commons-attribution" viewBox="0 0 20 20">
<path d="M12.583 7.623c0-0.342-0.278-0.62-0.62-0.62h-3.927c-0.342 0-0.62 0.277-0.62 0.62v3.927h1.095v4.65h2.976v-4.65h1.095v-3.927z"></path>
<path d="M11.343 5.143c0 0.742-0.601 1.343-1.343 1.343s-1.343-0.601-1.343-1.343c0-0.742 0.601-1.343 1.343-1.343s1.343 0.601 1.343 1.343z"></path>
<path d="M9.988 0.4c-2.659 0-4.91 0.928-6.752 2.784-1.891 1.92-2.835 4.192-2.835 6.816s0.945 4.88 2.835 6.768c1.89 1.888 4.141 2.832 6.752 2.832 2.643 0 4.934-0.952 6.873-2.856 1.826-1.808 2.74-4.056 2.74-6.744s-0.929-4.96-2.788-6.816c-1.859-1.856-4.133-2.784-6.825-2.784zM10.012 2.128c2.179 0 4.029 0.768 5.551 2.304 1.538 1.52 2.307 3.376 2.307 5.568 0 2.208-0.753 4.040-2.259 5.496-1.586 1.568-3.452 2.352-5.599 2.352s-3.997-0.776-5.551-2.328-2.331-3.392-2.331-5.52c0-2.128 0.785-3.984 2.355-5.568 1.506-1.536 3.348-2.304 5.527-2.304z"></path>
</symbol>
<symbol id="icon-creative-commons" viewBox="0 0 20 20">
<path d="M7.651 11.628c-0.406 0-0.713-0.148-0.92-0.445-0.209-0.295-0.313-0.689-0.313-1.182 0-1.084 0.41-1.627 1.232-1.627 0.164 0 0.342 0.055 0.533 0.164s0.353 0.301 0.484 0.574l1.232-0.641c-0.492-0.887-1.309-1.33-2.447-1.33-0.778 0-1.422 0.258-1.93 0.771-0.51 0.516-0.766 1.211-0.766 2.088 0 0.898 0.253 1.6 0.756 2.104 0.504 0.504 1.168 0.754 1.988 0.754 0.516 0 0.986-0.129 1.413-0.385 0.427-0.258 0.761-0.611 1.003-1.061l-1.135-0.574c-0.219 0.525-0.597 0.789-1.133 0.789zM12.958 11.628c-0.406 0-0.713-0.148-0.92-0.445-0.209-0.295-0.313-0.689-0.313-1.182 0-1.084 0.41-1.627 1.232-1.627 0.174 0 0.357 0.055 0.549 0.164 0.192 0.109 0.354 0.301 0.486 0.574l1.215-0.641c-0.482-0.887-1.293-1.33-2.432-1.33-0.777 0-1.421 0.258-1.93 0.771-0.51 0.516-0.764 1.211-0.764 2.088 0 0.898 0.248 1.6 0.747 2.104s1.163 0.754 1.996 0.754c0.503 0 0.97-0.129 1.396-0.385 0.428-0.258 0.768-0.611 1.020-1.061l-1.15-0.574c-0.219 0.525-0.598 0.789-1.133 0.789zM16.813 3.184c-1.859-1.856-4.134-2.784-6.825-2.784-2.659 0-4.91 0.927-6.752 2.784-1.89 1.92-2.835 4.192-2.835 6.816s0.945 4.88 2.835 6.768c1.89 1.888 4.141 2.832 6.752 2.832 2.643 0 4.935-0.952 6.873-2.856 1.826-1.808 2.739-4.056 2.739-6.744s-0.929-4.96-2.787-6.816zM15.611 15.496c-1.586 1.568-3.453 2.352-5.6 2.352s-3.997-0.776-5.55-2.328c-1.554-1.551-2.331-3.392-2.331-5.52s0.785-3.984 2.355-5.568c1.506-1.536 3.348-2.304 5.526-2.304s4.029 0.768 5.552 2.304c1.538 1.52 2.307 3.375 2.307 5.568 0 2.208-0.753 4.040-2.259 5.496z"></path>
</symbol>
</defs>
</svg>
