<svg xmlns="http://www.w3.org/2000/svg" width="32" height="32">
  <defs/>
  <path fill="#36465d" d="M15.447 7.023c2.445 0 4.744 1.081 6.432 2.773v.005c0-.812.547-1.424 1.305-1.424h.193c1.188 0 1.431 1.123 1.431 1.479l.007 12.633c-.084.828.853 1.255 1.372.724 2.028-2.085 4.456-10.717-1.261-15.72C19.598 2.83 12.45 3.598 8.647 6.22c-4.041 2.788-6.628 8.957-4.115 14.752 2.739 6.32 10.575 8.203 15.232 6.325 2.359-.953 3.448 2.235.999 3.276-3.701 1.579-14.003 1.419-18.813-6.917-3.252-5.628-3.079-15.532 5.544-20.663C14.09-.931 22.787.156 28.03 5.632c5.481 5.725 5.163 16.445-.185 20.615-2.421 1.893-6.021.049-5.997-2.708l-.025-.904c-1.687 1.675-3.931 2.651-6.376 2.651-4.833 0-9.084-4.252-9.084-9.083 0-4.879 4.252-9.18 9.085-9.18zm6.081 8.83c-.183-3.537-2.808-5.665-5.979-5.665h-.12c-3.66 0-5.691 2.879-5.691 6.147 0 3.663 2.456 5.975 5.675 5.975 3.591 0 5.952-2.631 6.123-5.741z"/>
</svg>
