<svg xmlns="http://www.w3.org/2000/svg" width="32" height="32">
  <defs/>
  <path fill="#36465d" d="M16.023 0C7.195 0 .039 7.156.039 15.983c0 6.772 4.211 12.556 10.157 14.883-.14-1.265-.265-3.204.055-4.585.292-1.249 1.875-7.943 1.875-7.943s-.479-.96-.479-2.375c0-2.217 1.289-3.881 2.891-3.881 1.365 0 2.024 1.025 2.024 2.251 0 1.372-.871 3.423-1.323 5.323-.38 1.591.8 2.887 2.367 2.887 2.837 0 5.024-2.993 5.024-7.316 0-3.815-2.751-6.492-6.677-6.492-4.547 0-7.212 3.416-7.212 6.932 0 1.377.525 2.857 1.185 3.655.132.16.149.3.113.46-.12.5-.391 1.599-.445 1.817-.071.3-.229.361-.535.22-1.993-.92-3.244-3.837-3.244-6.195 0-5.035 3.664-9.669 10.56-9.669 5.544 0 9.856 3.956 9.856 9.231 0 5.513-3.476 9.949-8.311 9.949-1.619 0-3.139-.839-3.677-1.839l-.999 3.797c-.359 1.393-1.339 3.136-1.997 4.195 1.497.46 3.075.713 4.733.713 8.809 0 15.98-7.153 15.98-15.983C31.96 7.187 24.789.035 15.98.035z"/>
</svg>
