<svg xmlns="http://www.w3.org/2000/svg" width="32" height="32">
  <defs/>
  <path fill="#36465d" d="M2.939 18.732c-.08.368-.121.747-.121 1.129 0 4.591 5.869 8.332 13.085 8.332 7.213 0 13.083-3.739 13.083-8.332a5.53 5.53 0 00-.109-1.079l-.02-.043a.609.609 0 01-.039-.22c-.403-1.567-1.489-2.988-3.061-4.137a.566.566 0 01-.168-.093c-.035-.027-.06-.056-.089-.085-2.389-1.645-5.808-2.677-9.595-2.677-3.753 0-7.139 1.012-9.528 2.628a.531.531 0 01-.238.165C4.531 15.469 3.416 16.903 3 18.484a.619.619 0 01-.049.228zm13.03 7.255c-2.392 0-4.076-.519-5.151-1.596a.6.6 0 010-.843.626.626 0 01.847 0c.84.839 2.247 1.257 4.304 1.257 2.056 0 3.455-.4 4.292-1.239.22-.219.6-.219.839 0 .22.24.22.62 0 .86-1.079 1.077-2.753 1.597-5.149 1.597zm-4.808-10.098a2.259 2.259 0 00-2.236 2.236c0 1.213 1.017 2.2 2.236 2.2s2.201-.987 2.201-2.2c0-1.216-.985-2.236-2.201-2.236zm9.644 0a2.26 2.26 0 00-2.237 2.236c0 1.213 1.019 2.2 2.237 2.2s2.201-.987 2.201-2.2c0-1.216-.985-2.236-2.201-2.236zm6.064-2.126c1.383 1.111 2.4 2.428 2.919 3.872.6-.448.959-1.152.959-1.932a2.424 2.424 0 00-3.877-1.937zm-23.254-.479a2.426 2.426 0 00-1.564 4.276c.535-1.439 1.563-2.737 2.951-3.835a2.429 2.429 0 00-1.385-.439zm12.289 16.105c-7.875 0-14.279-4.273-14.279-9.523 0-.367.031-.725.091-1.079A3.63 3.63 0 010 15.702c0-1.995 1.636-3.617 3.633-3.617.899 0 1.737.328 2.396.909 2.475-1.588 5.809-2.588 9.483-2.656l2.416-7.365.539.127s.021 0 .021.003l5.631 1.324a2.999 2.999 0 012.753-1.813 2.983 2.983 0 012.975 2.979c0 1.643-1.337 2.979-2.975 2.979s-2.973-1.339-2.973-2.973l-5.135-1.216-1.956 5.969c3.533.14 6.729 1.139 9.125 2.695a3.549 3.549 0 012.444-.959 3.621 3.621 0 013.624 3.615c0 1.316-.72 2.515-1.837 3.153.039.34.079.659.079.999-.02 5.251-6.408 9.524-14.293 9.524zM26.809 3.807a1.786 1.786 0 100 3.571c.976 0 1.773-.8 1.773-1.779 0-.977-.797-1.776-1.796-1.776z"/>
</svg>
