<svg xmlns="http://www.w3.org/2000/svg" width="32" height="32">
  <defs/>
  <path fill="#36465d" d="M16.275 1.057c1.32 0 5.796.368 7.907 5.095.705 1.591.537 4.292.399 6.463l-.004.08c-.016.24-.029.46-.04.68.1.06.271.12.535.12.4-.021.879-.16 1.377-.401.22-.117.459-.139.619-.139.243 0 .479.039.679.12.6.199.979.639.979 1.117.02.599-.52 1.119-1.617 1.557-.119.039-.279.1-.459.159-.6.18-1.519.48-1.777 1.08-.12.299-.081.699.16 1.157l.02.02c.08.181 2.035 4.633 6.388 5.352.34.059.58.36.56.679 0 .1-.02.199-.06.3-.32.759-1.697 1.317-4.195 1.695-.079.121-.16.5-.219.76a5.39 5.39 0 01-.179.737c-.101.361-.36.54-.74.54h-.04c-.18 0-.417-.041-.717-.099-.48-.1-1.02-.18-1.697-.18-.4 0-.799.02-1.217.099-.8.139-1.497.619-2.297 1.179-1.137.799-2.435 1.717-4.392 1.717-.08 0-.159-.02-.24-.02h-.199c-1.957 0-3.236-.9-4.372-1.717-.799-.56-1.476-1.039-2.276-1.179a8.839 8.839 0 00-1.237-.099c-.72 0-1.277.119-1.696.199a3.863 3.863 0 01-.72.099c-.499 0-.697-.299-.777-.56-.081-.256-.12-.519-.18-.756-.061-.241-.14-.659-.221-.76-2.557-.296-3.933-.856-4.252-1.635a.807.807 0 01-.073-.3.662.662 0 01.56-.679c4.352-.72 6.307-5.172 6.388-5.36l.021-.039c.24-.46.299-.86.159-1.159-.26-.579-1.179-.877-1.776-1.079a3.01 3.01 0 01-.461-.159c-1.476-.58-1.676-1.24-1.596-1.697.12-.639.899-1.057 1.557-1.057.195 0 .36.039.511.099.56.259 1.052.4 1.472.4.312 0 .512-.08.62-.14l-.061-.759c-.131-2.168-.3-4.868.409-6.449 2.052-4.703 6.515-5.063 7.832-5.063l.559-.02z"/>
</svg>
